# xmcd
# Track frame offsets:
# 150
# 17515
# 31607
# 51010
# 71625
# 92652
# 112152
# 128747
# 146160
# 163227
# 178220
# 191680
# 208715
# 221830
# 234332
# 251020
#
# Disc length: 3545 seconds
# Revision: 0
# Processed by: cddbd v1.5.2PL0 Copyright (c) Steve Scherf et al.
# Submitted via: VisiTrax 2.10.3.257 - For more info visit www.synapsa.com
#
DISCID=ec0dd710
DTITLE=Various Artist - Sony Music New Country collection
DYEAR=1999
DGENRE=
TTITLE0=Casser-Daley, Troy - Trains
TTITLE1=Cole, Beccy - Strong enough to ben
TTITLE2=Gentry, Montgomery - Daddy wont sell the Farm
TTITLE3=Rimes, LeAnne - Me and Bobby McGee
TTITLE4=McGraw, Tim - My best friend
TTITLE5=Dixie Chicks - Goodby Earl
TTITLE6=Hayes, Wade - Up North
TTITLE7=Messina, Jo Dee - Because you love me
TTITLE8=Rogers, Kenny - Buy me a Rose
TTITLE9=Wynonna - Can't anyone love you like I do
TTITLE10=Diffie, Joe - It's always something
TTITLE11=Judds - Stuck in love
TTITLE12=Brown, Sawyer - 800 pound Jesus
TTITLE13=Leigh, Danni - Honey I do
TTITLE14=Raye, Colin - Couldn't last a moment
TTITLE15=Renee Stewart - Crazy Valentine
EXTD=
EXTT0=
EXTT1=
EXTT2=
EXTT3=
EXTT4=
EXTT5=
EXTT6=
EXTT7=
EXTT8=
EXTT9=
EXTT10=
EXTT11=
EXTT12=
EXTT13=
EXTT14=
EXTT15=
PLAYORDER=
